<?xml version="1.0" standalone="no"?>
<!DOCTYPE svg PUBLIC "-//W3C//DTD SVG 20010904//EN"
 "http://www.w3.org/TR/2001/REC-SVG-20010904/DTD/svg10.dtd">
<svg version="1.0" xmlns="http://www.w3.org/2000/svg"
 width="1105.000000pt" height="622.000000pt" viewBox="0 0 1105.000000 622.000000"
 preserveAspectRatio="xMidYMid meet">

<g transform="translate(0.000000,622.000000) scale(0.100000,-0.100000)"
fill="#000000" stroke="none">
<path d="M8180 5025 c0 -247 1 -240 -45 -247 -19 -3 -20 5 -29 200 -5 111 -13
202 -17 202 -5 0 -9 -96 -9 -213 0 -173 -3 -220 -15 -245 -15 -29 -15 -34 2
-64 16 -29 18 -68 21 -332 4 -317 4 -315 -43 -316 -19 0 -20 8 -24 238 -2 130
-5 329 -6 442 -3 473 -5 540 -15 540 -6 0 -11 -166 -12 -462 -3 -443 -4 -462
-20 -432 -9 17 -38 51 -63 75 -36 34 -45 50 -45 76 0 29 -4 34 -31 40 -27 5
-30 9 -24 32 9 37 24 51 54 51 63 0 84 50 85 202 1 58 -3 72 -29 110 -45 63
-104 93 -186 93 -57 0 -73 -4 -118 -33 -35 -21 -60 -30 -75 -26 -33 8 -75 -12
-82 -40 -3 -14 1 -37 10 -55 18 -34 13 -73 -13 -107 -13 -16 -16 -44 -16 -130
l0 -109 35 -2 c19 -1 44 -2 55 -2 21 -2 85 -93 68 -98 -4 -2 -23 -12 -42 -24
-30 -18 -33 -24 -29 -57 3 -23 -3 -56 -15 -87 -26 -64 -42 -81 -33 -37 8 48
-15 85 -84 136 -85 63 -93 73 -110 135 -14 51 -14 60 0 101 15 43 17 45 53 42
26 -3 37 0 37 10 0 8 6 20 12 26 16 16 20 143 7 195 -19 74 -120 156 -191 157
-42 0 -129 -43 -167 -84 -31 -32 -38 -35 -73 -30 -34 6 -38 4 -38 -14 0 -12
10 -28 22 -36 16 -11 23 -27 24 -53 1 -31 -4 -43 -30 -64 -23 -20 -28 -30 -21
-40 6 -8 10 -41 9 -74 -1 -33 3 -68 8 -77 7 -15 4 -18 -13 -18 -29 0 -99 21
-99 30 0 4 -21 15 -47 25 -27 10 -51 22 -54 27 -3 4 -24 21 -46 36 -39 25
-173 142 -268 231 -22 21 -72 61 -112 90 -39 28 -88 70 -109 93 -20 23 -58 57
-83 77 -25 19 -54 45 -64 58 -18 22 -47 32 -47 15 0 -4 14 -26 30 -49 28 -39
29 -41 10 -46 -17 -4 -20 -14 -20 -54 0 -40 5 -54 24 -73 15 -13 31 -20 41
-16 21 8 132 -50 147 -78 7 -11 11 -30 10 -41 -5 -41 341 -368 508 -480 30
-20 56 -38 58 -40 6 -5 -96 -305 -104 -305 -2 0 -27 26 -56 57 -85 90 -87 93
-101 93 -7 0 -33 -16 -56 -36 -33 -29 -41 -42 -37 -59 5 -21 1 -23 -107 -40
l-113 -18 -55 42 c-30 22 -61 41 -70 41 -25 0 -65 -35 -83 -74 -26 -55 -29
-50 77 -131 36 -27 64 -55 62 -62 -3 -8 2 -10 13 -6 14 5 15 3 5 -8 -19 -19
-16 -33 3 -15 14 14 17 14 30 1 16 -16 11 -35 -9 -35 -8 0 -8 3 2 9 8 5 9 11
3 15 -6 3 -13 2 -16 -2 -8 -13 -119 -2 -137 14 -16 15 -110 20 -123 7 -14 -15
-130 -31 -154 -22 -33 13 -90 11 -94 -3 -3 -7 -28 -11 -71 -11 -37 1 -69 -3
-72 -8 -9 -13 -45 -11 -45 2 0 7 -11 9 -27 7 -45 -8 -55 -12 -74 -29 -9 -9
-36 -20 -60 -24 -48 -8 -129 -43 -129 -57 0 -11 -78 -10 -82 2 -2 6 -27 5 -70
-2 -80 -13 -102 -7 -92 24 6 20 5 21 -9 8 -43 -40 -47 -42 -47 -25 0 8 6 15
14 15 7 0 25 17 39 38 20 28 27 55 32 112 6 67 4 85 -24 166 -17 49 -33 116
-37 148 -11 92 -50 141 -160 198 -49 26 -97 47 -106 48 -11 0 -18 8 -18 19 0
10 -7 24 -16 31 -11 10 -14 23 -8 54 3 23 11 47 16 53 6 7 7 20 4 29 -4 10 1
25 10 35 11 12 14 27 10 44 -8 35 -14 64 -21 108 -12 75 -101 144 -199 154
-52 5 -52 5 -103 -46 -35 -35 -57 -68 -68 -102 -10 -29 -27 -56 -41 -66 l-25
-16 30 -18 c39 -24 44 -33 47 -98 3 -70 17 -108 50 -134 34 -26 23 -35 -91
-72 -49 -16 -102 -36 -116 -44 -36 -22 -105 -85 -124 -114 -9 -14 -29 -27 -45
-30 -18 -4 -55 -32 -97 -75 -38 -38 -80 -72 -95 -75 -15 -4 -33 -14 -42 -22
-20 -21 -21 -20 -23 23 -1 20 -4 66 -8 102 l-6 65 -73 70 c-48 46 -77 83 -86
108 -11 36 -10 39 24 82 20 24 42 42 49 39 24 -9 47 21 72 91 30 86 31 107 4
192 -18 56 -30 76 -73 116 -46 44 -54 48 -86 42 -56 -11 -92 -33 -152 -98 -54
-56 -58 -64 -58 -108 0 -26 -5 -51 -10 -54 -15 -10 -12 -82 5 -99 41 -41 -12
-118 -98 -142 -29 -8 -59 -18 -67 -23 -9 -5 -30 -12 -47 -15 -44 -10 -109 -70
-124 -114 -6 -20 -15 -42 -20 -47 -4 -6 -6 -23 -5 -38 2 -15 -2 -31 -9 -35 -7
-4 -15 -29 -18 -57 -7 -73 -32 -163 -40 -145 -4 8 -6 -26 -4 -77 1 -50 -1 -86
-5 -80 -4 7 -8 20 -8 30 0 10 -4 15 -10 12 -5 -3 -11 4 -11 17 -1 17 -3 18 -6
6 -9 -34 -23 -18 -22 25 1 36 2 38 9 17 8 -25 8 -25 10 5 2 27 3 25 13 -15 8
-35 12 -40 15 -21 5 32 -7 91 -18 91 -6 0 -10 -5 -10 -12 0 -6 -8 -2 -18 8
-18 20 -47 25 -70 11 -6 -5 -12 -4 -12 1 0 10 -141 27 -199 23 -19 -1 -37 3
-40 8 -10 15 -554 18 -559 3 -5 -15 -242 -17 -242 -2 0 6 -18 10 -40 10 -29 0
-40 4 -40 15 0 11 11 15 40 15 22 0 40 5 40 10 0 6 -18 10 -40 10 -22 0 -40
-4 -40 -10 0 -5 -20 -10 -43 -10 -37 0 -46 4 -55 25 -15 32 -28 32 -46 -2 -11
-20 -15 -23 -16 -10 0 13 -9 17 -40 17 -22 0 -40 5 -40 10 0 6 -17 10 -39 10
-31 0 -40 4 -44 21 -3 12 -10 19 -15 16 -4 -4 -8 4 -8 16 1 29 -28 29 -32 0
-3 -22 -22 -33 -22 -13 0 6 -18 10 -40 10 -22 0 -40 3 -40 8 0 4 -9 13 -20 20
-17 10 -24 10 -43 -2 -19 -12 -27 -12 -59 1 -21 8 -38 19 -38 24 0 5 -36 9
-80 9 -47 0 -80 4 -80 10 0 6 -18 10 -40 10 -22 0 -40 -4 -40 -10 0 -5 -18
-10 -40 -10 -29 0 -40 4 -40 15 0 12 -16 15 -80 15 -47 0 -80 4 -80 10 0 6
-18 10 -40 10 -29 0 -40 4 -40 15 0 11 -11 15 -40 15 -29 0 -40 4 -40 15 0 11
11 15 40 15 22 0 40 5 40 10 0 6 -33 10 -80 10 l-80 0 0 30 0 30 -80 0 c-47 0
-80 4 -80 10 0 6 -18 10 -40 10 l-40 0 0 -2215 0 -2215 174 0 175 0 4 53 3 52
2 -52 c2 -44 5 -53 21 -53 16 0 17 6 13 49 -5 56 19 130 48 149 15 9 23 7 44
-9 24 -19 26 -26 25 -97 0 -52 -3 -71 -9 -57 -8 19 -9 18 -11 -5 -1 -14 -5 8
-10 49 -8 71 -21 102 -35 88 -6 -6 -6 -26 0 -87 2 -19 4 -45 5 -57 l1 -23 317
0 c287 0 318 2 336 18 19 16 20 16 14 0 -5 -15 0 -18 34 -18 24 0 38 4 34 10
-3 5 0 10 9 10 8 0 26 14 40 30 24 30 26 30 44 12 36 -36 90 -62 128 -62 l39
0 -35 28 c-57 44 -87 74 -69 69 12 -4 16 1 15 16 -1 12 -7 22 -13 21 -30 -2
-34 -5 -28 -14 11 -17 -8 -11 -30 10 -11 11 -37 34 -57 51 -43 35 -46 44 -19
46 15 1 18 -3 14 -15 -6 -14 -5 -15 9 -2 9 8 12 17 7 18 -18 7 -8 22 29 47 74
49 197 137 213 151 15 14 22 11 68 -28 l51 -43 -5 -155 c-2 -85 -7 -165 -11
-177 -6 -23 -5 -23 79 -23 85 0 85 0 99 30 16 37 31 40 18 4 -6 -14 -10 -27
-10 -30 0 -2 64 -4 143 -4 120 1 139 3 125 14 -28 21 -22 61 11 85 35 25 39
25 61 6 13 -12 16 -27 12 -60 l-5 -45 151 0 c169 0 162 -4 162 88 0 23 4 42 9
42 4 0 8 -29 7 -65 l-1 -65 353 0 c334 0 354 1 347 18 -5 9 -10 32 -13 51 -2
19 -13 44 -23 55 -11 11 -19 23 -19 26 0 4 27 26 61 49 l60 41 31 -21 c41 -30
36 -54 -40 -211 -2 -5 168 -8 378 -8 l381 0 -3 95 c-2 52 0 95 4 95 4 0 13 -6
20 -12 7 -7 32 -26 56 -42 41 -28 42 -30 42 -82 l0 -54 110 0 111 0 -2 238
c-1 149 -5 242 -12 250 -10 13 -12 601 -1 611 3 3 8 1 12 -5 4 -6 55 -54 115
-108 59 -54 105 -101 102 -106 -5 -7 89 -93 240 -220 57 -48 71 -84 35 -93
-17 -4 -20 -14 -20 -56 0 -49 -1 -50 -34 -57 -64 -12 -55 -84 11 -84 l23 0 0
-173 c0 -121 -4 -177 -12 -185 -9 -9 32 -12 185 -12 l197 0 0 33 c0 17 5 39
10 47 8 13 14 13 45 -4 27 -15 35 -25 35 -47 l0 -27 283 -1 c203 0 274 3 255
10 -27 10 -28 13 -28 85 0 78 5 90 20 49 5 -14 16 -25 23 -25 8 0 22 -9 32
-20 10 -11 26 -20 37 -20 14 0 18 -8 18 -40 0 -38 2 -40 30 -40 27 0 30 3 30
29 0 35 12 45 46 37 19 -5 24 -13 24 -36 0 -29 2 -30 46 -30 l46 0 -4 75 -3
74 45 10 c25 6 64 13 88 16 l42 7 0 -92 0 -92 185 4 185 3 98 98 c88 87 101
97 134 97 32 0 37 3 42 27 2 16 3 -29 1 -99 l-3 -128 62 0 c53 1 59 2 43 14
-15 12 -17 28 -15 131 3 104 5 118 21 121 9 1 83 7 165 14 81 6 153 13 161 16
11 4 12 -16 7 -118 -7 -113 -9 -125 -32 -145 -13 -12 -24 -25 -24 -28 0 -3 24
-5 53 -5 49 0 54 2 70 33 10 17 43 52 73 76 30 24 80 66 112 95 140 123 186
156 148 104 -28 -38 -30 -50 -13 -63 12 -8 17 -27 17 -56 0 -44 -24 -94 -40
-84 -4 3 -10 2 -12 -2 -3 -7 -69 -41 -158 -82 l-35 -16 51 -3 c41 -2 65 3 115
28 34 16 64 30 66 30 2 0 3 -13 3 -30 0 -28 2 -30 39 -30 l40 0 4 53 3 52 2
-52 2 -53 408 0 c304 0 411 3 420 12 9 9 12 9 12 0 0 -8 17 -12 45 -12 33 0
45 4 45 15 0 12 9 14 43 9 23 -3 55 -10 71 -15 41 -13 1006 -12 1006 1 0 6
-15 10 -33 10 -18 0 -38 5 -45 12 -18 18 -16 147 2 154 8 3 58 -19 112 -48 96
-52 99 -55 108 -96 l9 -42 137 0 137 0 7 40 c3 22 3 91 0 153 -6 114 -25 171
-68 206 -10 8 -14 22 -10 36 4 16 0 26 -12 33 -15 8 -12 13 25 32 24 12 46 19
49 15 27 -26 62 -253 62 -397 l0 -118 29 0 29 0 6 92 c8 115 26 591 26 670 0
58 0 58 -30 58 -25 0 -128 47 -201 93 -19 12 -42 78 -31 88 4 3 72 14 152 23
159 19 639 83 683 92 l27 6 0 100 0 101 -77 -6 -78 -6 75 21 c80 22 86 25 78
34 -3 3 -66 -11 -140 -30 -195 -50 -280 -67 -393 -77 -55 -5 -127 -14 -160
-19 -128 -22 -290 -38 -300 -30 -5 5 -24 7 -42 6 -24 -2 -33 2 -35 16 -5 29
-23 20 -21 -10 1 -14 -3 -30 -10 -34 -20 -13 -64 -9 -77 7 -7 8 -18 15 -24 15
-6 1 -24 11 -39 24 -29 23 -29 24 -25 116 3 91 4 93 28 96 14 1 225 4 470 5
245 2 518 5 608 7 l162 3 0 185 0 184 -633 0 -634 0 -7 136 c-3 74 -4 139 -1
145 4 5 19 9 34 9 16 0 34 7 41 15 14 17 6 26 -52 62 -27 16 -28 21 -28 95 l0
78 34 0 c18 0 39 6 45 14 9 11 -5 25 -79 72 l-90 58 0 98 c0 78 3 100 15 104
8 4 15 12 15 19 0 7 -7 15 -15 19 -12 4 -15 26 -15 105 0 61 4 102 11 107 6 3
8 16 4 28 -3 11 -8 314 -11 671 -5 545 -8 652 -20 661 -8 6 -14 16 -14 23 0 9
-25 16 -32 9 -1 -2 -5 -196 -8 -433 l-5 -430 -3 453 c-2 358 -5 453 -14 450
-10 -4 -14 -122 -18 -529 -3 -288 -8 -504 -11 -479 -3 25 -7 194 -8 375 -1
435 -10 655 -26 655 -7 0 -17 -10 -23 -22 -6 -13 -11 -17 -11 -10 -1 7 -12 28
-25 45 -13 18 -33 59 -46 92 -13 33 -30 75 -39 93 -14 30 -14 34 2 65 10 18
15 40 12 49 -11 28 13 58 44 58 25 0 30 5 35 35 4 19 2 43 -4 54 -5 11 -10 31
-10 46 0 34 -26 94 -53 123 -60 64 -166 82 -236 38 -42 -27 -73 -62 -111 -124
-14 -22 -34 -43 -45 -45 -16 -3 -14 -5 10 -11 29 -7 30 -9 30 -64 0 -31 -6
-67 -13 -80 -8 -13 -10 -31 -7 -40 4 -9 9 -28 10 -42 2 -14 9 -43 17 -65 13
-38 16 -40 53 -40 33 0 41 -4 43 -21 2 -15 -7 -29 -27 -44 -36 -25 -75 -87
-97 -156 -9 -27 -21 -53 -25 -58 -5 -6 -9 -19 -10 -30 0 -12 -13 -43 -30 -71
-16 -27 -33 -59 -38 -70 -5 -11 -17 -28 -28 -37 -18 -17 -34 -16 -110 7 -25 8
-18 -8 -98 220 -89 256 -79 235 -119 235 -25 0 -39 -7 -50 -22 -18 -25 -5 -28
-151 34 l-80 34 -3 303 c-2 235 -5 302 -15 298 -9 -3 -13 -75 -15 -295 -1
-161 -6 -292 -10 -292 -5 0 -18 24 -30 53 -21 49 -22 67 -22 325 0 175 -4 272
-10 272 -6 0 -10 -85 -10 -235z m-28 -545 c17 -39 21 -71 24 -229 2 -102 1
-193 -2 -204 -4 -13 -13 -17 -31 -15 l-25 3 -5 260 c-5 275 -4 278 39 185z
m84 -175 c21 -49 24 -70 24 -181 l0 -125 -30 18 -30 17 0 163 c0 90 2 163 6
163 3 0 16 -25 30 -55z m1273 -542 c-1 -316 -3 -353 -14 -313 -22 71 -11 670
11 670 2 0 4 -161 3 -357z m-1199 305 c0 -9 16 -33 36 -52 26 -25 48 -67 84
-156 26 -67 52 -125 56 -130 5 -4 40 -17 78 -29 71 -23 158 -64 211 -100 17
-12 38 -21 48 -21 12 0 17 -8 17 -27 0 -16 3 -44 6 -64 5 -30 3 -36 -12 -37
-38 -4 -88 -1 -98 6 -6 3 -18 7 -26 7 -8 1 -25 2 -37 3 -13 1 -23 9 -23 17 0
8 -5 15 -11 15 -5 0 -7 -4 -4 -10 4 -6 -33 -10 -104 -10 -60 0 -112 4 -115 8
-6 10 5 12 112 13 52 0 82 4 80 11 -5 14 -74 37 -133 44 -27 3 -68 7 -90 10
-22 3 -50 5 -62 6 -21 0 -21 3 -21 139 0 76 -4 143 -7 150 -4 6 -2 29 5 50 10
30 11 42 2 51 -7 7 -12 42 -12 83 0 49 3 65 10 55 5 -8 10 -23 10 -32z m-138
-107 c-3 -30 -9 -40 -25 -45 -12 -3 -22 -4 -23 -3 -1 1 -4 22 -5 47 -3 40 -1
45 21 50 32 8 37 0 32 -49z m88 -2 c0 -14 -26 -28 -52 -29 -5 0 -8 18 -8 41
l0 40 30 -18 c17 -9 30 -25 30 -34z m-170 1 c0 -22 -3 -40 -7 -40 -5 1 -21 12
-38 25 -36 29 -25 44 38 54 4 0 7 -17 7 -39z m-7883 -67 c-3 -10 -5 -2 -5 17
0 19 2 27 5 18 2 -10 2 -26 0 -35z m7857 16 c21 -16 26 -29 26 -64 0 -44 -10
-55 -51 -55 -17 0 -19 8 -19 70 0 39 4 70 9 70 4 0 20 -9 35 -21z m205 -67
c-1 -37 -3 -70 -5 -74 -2 -3 -18 6 -34 20 -25 22 -30 34 -30 74 0 43 2 47 28
50 15 2 31 2 35 0 4 -2 7 -34 6 -70z m-8022 -4 c-2 -13 -4 -3 -4 22 0 25 2 35
4 23 2 -13 2 -33 0 -45z m2393 52 c0 -5 -4 -10 -9 -10 -6 0 -13 5 -16 10 -3 6
1 10 9 10 9 0 16 -4 16 -10z m5530 -34 c0 -42 -10 -56 -41 -56 -13 0 -11 74 3
88 25 25 38 13 38 -32z m-7770 -33 c-4 -42 -5 -44 -8 -15 -3 30 2 62 10 62 2
0 1 -21 -2 -47z m8480 32 c0 -8 -4 -15 -9 -15 -5 0 -11 7 -15 15 -3 9 0 15 9
15 8 0 15 -7 15 -15z m560 -96 c0 -111 -11 -137 -24 -57 -9 51 -9 62 -1 108
17 95 25 79 25 -51z m-5411 55 c-5 -21 -13 -46 -16 -54 -3 -8 -7 -26 -9 -39
-2 -13 -9 -28 -16 -33 -9 -5 -10 -10 -2 -15 6 -5 14 -21 18 -36 l7 -29 -30 21
c-16 12 -39 21 -51 21 -11 0 -18 5 -15 10 3 6 -1 10 -9 10 -8 0 -19 8 -25 17
-5 10 -13 14 -18 10 -4 -5 -10 -122 -13 -260 l-6 -252 -2 258 c-2 201 -5 257
-15 257 -7 0 -21 14 -30 30 -10 17 -26 30 -36 30 -10 0 -25 8 -35 19 -13 14
-14 20 -4 29 9 7 16 6 25 -3 6 -7 10 -15 8 -17 -2 -2 12 -2 33 0 20 2 42 10
48 18 7 8 32 15 60 16 27 1 69 10 94 18 25 9 46 16 47 15 1 0 -2 -19 -8 -41z
m-3462 14 c-3 -8 -6 -5 -6 6 -1 11 2 17 5 13 3 -3 4 -12 1 -19z m-420 -70 c-3
-7 -5 -2 -5 12 0 14 2 19 5 13 2 -7 2 -19 0 -25z m8023 -18 c0 -36 -2 -40 -25
-40 -22 0 -25 4 -25 34 0 19 6 37 13 39 30 13 37 6 37 -33z m-4438 -49 c-5
-83 -17 -77 -17 8 0 45 3 66 10 61 6 -5 8 -36 7 -69z m4358 56 c0 -35 -10 -39
-41 -16 -38 27 -36 39 6 39 30 0 35 -3 35 -23z m148 7 c32 -22 28 -44 -8 -44
-27 0 -30 3 -30 30 0 34 6 36 38 14z m-2688 -8 c0 -21 -21 -31 -31 -15 -5 8
-3 17 4 21 18 12 27 10 27 -6z m-4943 -28 c-3 -8 -6 -5 -6 6 -1 11 2 17 5 13
3 -3 4 -12 1 -19z m7453 -21 c22 -20 25 -31 22 -70 -3 -32 -8 -45 -16 -40 -7
4 -7 1 1 -9 11 -13 8 -15 -20 -15 -22 -1 -27 1 -14 6 17 6 17 8 3 20 -11 10
-16 31 -16 72 0 33 3 59 8 59 4 0 19 -10 32 -23z m203 -69 c-3 -35 -7 -65 -10
-68 -13 -14 -39 23 -46 65 -9 52 -1 65 39 65 20 0 21 -4 17 -62z m-8156 -145
c-2 -38 -3 -7 -3 67 0 74 1 105 3 68 2 -38 2 -98 0 -135z m8063 148 c0 -40 -4
-50 -19 -54 -21 -5 -31 16 -31 64 0 30 7 39 32 39 15 0 18 -8 18 -49z m-7923
-53 c-2 -18 -4 -4 -4 32 0 36 2 50 4 33 2 -18 2 -48 0 -65z m4697 84 c3 -5 -1
-9 -9 -9 -8 0 -15 4 -15 9 0 4 4 8 9 8 6 0 12 -4 15 -8z m-4627 -159 c-2 -32
-3 -8 -3 52 0 61 1 87 3 58 2 -29 2 -78 0 -110z m-20 95 c-2 -13 -4 -5 -4 17
-1 22 1 32 4 23 2 -10 2 -28 0 -40z m-107 -113 c-7 -90 -7 -90 -7 35 -1 70 2
110 6 90 4 -19 4 -75 1 -125z m2464 130 c-24 -18 -29 -18 -44 0 -8 9 -8 15 -2
15 6 0 12 -6 15 -12 3 -10 9 -8 23 4 10 10 20 15 23 13 2 -3 -4 -12 -15 -20z
m202 -12 c-4 -4 -11 -1 -16 7 -16 25 -11 35 7 17 9 -9 13 -20 9 -24z m1084 3
c0 -9 -13 -7 -29 3 -7 5 -10 14 -7 20 5 8 11 7 22 -3 8 -8 14 -17 14 -20z
m-1145 14 c3 -5 1 -10 -4 -10 -6 0 -11 5 -11 10 0 6 2 10 4 10 3 0 8 -4 11
-10z m-2288 -32 c-3 -7 -5 -2 -5 12 0 14 2 19 5 13 2 -7 2 -19 0 -25z m2263
10 c0 -6 -6 -5 -15 2 -8 7 -15 14 -15 16 0 2 7 1 15 -2 8 -4 15 -11 15 -16z
m-2163 -20 c-3 -8 -6 -5 -6 6 -1 11 2 17 5 13 3 -3 4 -12 1 -19z m3303 7 c-6
-8 -10 -20 -7 -27 4 -8 6 -7 6 5 1 10 9 17 22 17 11 0 17 -4 14 -10 -4 -6 7
-10 24 -10 33 0 43 16 14 22 -17 3 -17 4 -1 10 14 6 20 0 27 -25 l9 -32 2 30
c1 17 4 24 7 17 6 -16 -25 -280 -37 -307 -12 -27 -19 -126 -9 -119 5 2 26 -7
49 -22 28 -19 40 -34 40 -51 0 -14 -4 -21 -10 -18 -5 3 -10 15 -10 26 0 10 -4
19 -9 19 -5 0 -7 -9 -4 -20 3 -11 0 -20 -6 -20 -6 0 -12 8 -12 18 -1 16 -2 16
-6 0 -5 -21 -5 -21 -40 -6 -39 17 -39 17 -17 32 18 13 17 14 -8 13 -14 -1 -24
-5 -22 -8 2 -3 -6 -23 -16 -45 l-20 -38 0 266 c0 264 3 298 22 298 6 0 5 -6
-2 -15z m-3233 -42 c-3 -10 -5 -2 -5 17 0 19 2 27 5 18 2 -10 2 -26 0 -35z
m1938 37 c-3 -5 -11 -10 -16 -10 -6 0 -7 5 -4 10 3 6 11 10 16 10 6 0 7 -4 4
-10z m-2578 -32 c-3 -7 -5 -2 -5 12 0 14 2 19 5 13 2 -7 2 -19 0 -25z m2763
10 c0 -6 -6 -5 -15 2 -8 7 -15 14 -15 16 0 2 7 1 15 -2 8 -4 15 -11 15 -16z
m-2293 -95 c-2 -21 -4 -6 -4 32 0 39 2 55 4 38 2 -18 2 -50 0 -70z m2331 68
c3 -8 -1 -12 -9 -9 -7 2 -15 10 -17 17 -3 8 1 12 9 9 7 -2 15 -10 17 -17z
m2049 -3 c-3 -8 -6 -5 -6 6 -1 11 2 17 5 13 3 -3 4 -12 1 -19z m43 12 c0 -5
-5 -10 -11 -10 -5 0 -7 5 -4 10 3 6 8 10 11 10 2 0 4 -4 4 -10z m-2064 -28
c-17 -16 -18 -16 -5 5 7 12 15 20 18 17 3 -2 -3 -12 -13 -22z m5191 12 c-3 -3
-12 -4 -19 -1 -8 3 -5 6 6 6 11 1 17 -2 13 -5z m188 -4 c3 -5 1 -10 -4 -10 -6
0 -11 5 -11 10 0 6 2 10 4 10 3 0 8 -4 11 -10z m-3323 -43 c-7 -8 -6 -18 4
-31 13 -18 14 -16 14 23 0 25 4 40 10 36 5 -3 7 -20 4 -38 -3 -19 -2 -27 3
-20 5 7 17 10 28 8 11 -2 28 -4 38 -4 9 -1 17 -8 17 -16 0 -11 11 -15 38 -15
21 0 42 3 46 7 9 10 37 13 31 4 -10 -16 49 -31 148 -37 56 -3 106 -9 111 -12
5 -3 19 -7 30 -8 100 -16 156 -34 156 -51 0 -7 -4 -13 -9 -13 -5 0 -20 -15
-32 -32 -12 -18 -19 -30 -15 -26 5 4 19 -6 32 -22 14 -16 34 -30 46 -32 11 -2
24 -10 28 -18 4 -8 12 -25 18 -37 14 -27 16 -73 3 -73 -5 0 -13 -9 -16 -20 -6
-18 -23 -27 -66 -33 -8 -2 -23 -8 -34 -15 -18 -12 -18 -13 9 -9 39 6 56 -1 56
-24 0 -11 8 -22 18 -25 9 -3 29 -12 44 -20 14 -8 32 -14 39 -14 23 0 119 -54
115 -65 -3 -8 17 -10 60 -9 44 1 67 -2 75 -12 6 -8 19 -14 29 -14 10 0 28 -16
41 -35 16 -23 39 -40 67 -50 41 -13 45 -13 65 6 12 12 33 26 47 31 18 8 21 12
10 16 -25 9 -40 30 -40 56 0 21 5 26 25 26 14 0 25 5 25 11 0 6 -17 9 -42 7
-42 -3 -43 -4 -40 -35 3 -32 2 -33 -35 -33 -33 0 -39 3 -40 22 -1 11 -8 25
-15 30 -10 8 -10 11 0 15 6 2 12 11 12 19 0 11 18 14 80 14 44 0 80 -4 80 -9
0 -19 95 -17 155 2 33 11 62 24 65 28 3 4 24 9 47 10 23 2 40 6 37 10 -2 5 4
13 14 18 29 16 34 59 8 67 -25 8 -57 39 -49 48 6 6 -5 11 -49 20 -28 6 -58 31
-58 47 0 5 14 9 31 9 17 0 28 4 24 10 -4 6 15 10 51 10 39 0 63 5 76 16 16 16
18 16 24 0 8 -21 24 -21 25 2 0 14 2 14 9 -3 8 -19 9 -19 9 -1 1 11 4 17 7 14
5 -6 -11 -149 -23 -195 -3 -13 -9 -21 -13 -18 -7 4 -20 -16 -24 -35 -1 -3 -5
-11 -10 -18 -4 -7 -5 -16 -2 -19 3 -4 6 -1 6 5 0 19 30 14 31 -5 1 -10 5 -2
10 17 5 21 5 2 2 -50 -12 -167 -9 -423 5 -465 19 -59 7 -246 -21 -302 -16 -34
-18 -45 -8 -57 10 -12 10 -20 0 -38 -29 -56 -82 -117 -109 -127 -28 -9 -30 -8
-36 16 -4 14 -2 34 5 45 6 10 7 18 2 18 -13 0 -13 111 1 127 9 11 9 16 -1 22
-10 7 -12 74 -9 320 2 171 3 311 2 311 -1 0 -10 3 -20 7 -16 6 -17 -12 -10
-309 l7 -315 -26 -17 -25 -16 0 321 c0 252 -3 320 -12 316 -10 -3 -12 -98 -9
-443 4 -427 3 -439 -16 -457 -18 -16 -47 -17 -359 -15 l-339 3 -3 360 -2 360
89 0 c49 0 93 -4 97 -8 15 -15 92 -7 115 12 l24 19 -28 11 c-16 6 -35 11 -44
11 -8 0 -23 10 -33 22 -14 18 -26 21 -66 19 -27 -1 -50 -6 -52 -12 -2 -5 -19
-9 -38 -9 -24 0 -33 4 -28 11 5 9 -6 10 -40 5 -42 -7 -53 -4 -88 19 -22 15
-42 24 -45 22 -2 -3 -19 -1 -36 5 -18 5 -63 14 -102 18 -96 11 -241 46 -267
65 -13 8 -35 15 -50 15 -16 0 -28 3 -28 8 0 9 -92 43 -135 49 -16 3 -34 9 -40
14 -5 5 -24 9 -42 9 -24 0 -33 5 -34 18 0 15 -2 14 -9 -3 -6 -13 -8 13 -6 74
3 79 7 96 23 104 10 6 21 15 25 21 14 20 8 137 -9 209 -17 68 -17 71 2 81 39
22 75 68 75 96 0 16 3 35 6 44 5 14 8 14 21 0 10 -10 12 -18 5 -27z m-4895
-14 c-3 -10 -5 -4 -5 12 0 17 2 24 5 18 2 -7 2 -21 0 -30z m220 -75 c-2 -24
-4 -7 -4 37 0 44 2 63 4 43 2 -21 2 -57 0 -80z m7920 57 c0 -8 -4 -12 -9 -9
-4 3 -8 9 -8 15 0 5 4 9 8 9 5 0 9 -7 9 -15z m-1532 -15 c10 -11 16 -20 13
-20 -3 0 -13 9 -23 20 -10 11 -16 20 -13 20 3 0 13 -9 23 -20z m1502 -22 c-3
-8 -6 -5 -6 6 -1 11 2 17 5 13 3 -3 4 -12 1 -19z m-5277 -13 c13 -14 19 -25
14 -25 -8 1 -50 50 -41 50 2 0 14 -11 27 -25z m5397 -42 c-2 -16 -4 -5 -4 22
0 28 2 40 4 28 2 -13 2 -35 0 -50z m-8150 -35 c-2 -18 -4 -4 -4 32 0 36 2 50
4 33 2 -18 2 -48 0 -65z m7970 70 c-3 -8 -6 -5 -6 6 -1 11 2 17 5 13 3 -3 4
-12 1 -19z m153 -19 c0 -6 -4 -7 -10 -4 -5 3 -10 11 -10 16 0 6 5 7 10 4 6 -3
10 -11 10 -16z m-70 -5 c0 -2 -7 -4 -15 -4 -8 0 -15 4 -15 10 0 5 7 7 15 4 8
-4 15 -8 15 -10z m-7913 -46 c-3 -8 -6 -5 -6 6 -1 11 2 17 5 13 3 -3 4 -12 1
-19z m8077 7 c3 -8 1 -15 -4 -15 -6 0 -10 7 -10 15 0 8 2 15 4 15 2 0 6 -7 10
-15z m1178 -17 c-7 -7 -12 -8 -12 -2 0 14 12 26 19 19 2 -3 -1 -11 -7 -17z
m-6651 -5 c13 -16 12 -17 -3 -4 -10 7 -18 15 -18 17 0 8 8 3 21 -13z m5226 11
c-3 -3 -12 -4 -19 -1 -8 3 -5 6 6 6 11 1 17 -2 13 -5z m309 -9 c-11 -8 -27
-15 -35 -15 -10 0 -7 6 9 14 33 19 50 19 26 1z m175 -17 c4 -6 39 -8 83 -5 42
3 76 1 76 -4 0 -5 18 -7 40 -5 24 2 40 0 40 -7 0 -6 6 -3 14 8 8 12 20 16 34
13 12 -3 24 -1 27 6 3 6 2 -2 -1 -19 -7 -33 -18 -454 -17 -605 4 -424 11 -678
18 -695 4 -11 14 -28 22 -37 13 -15 12 -18 -11 -33 -14 -10 -26 -22 -26 -28 0
-6 -7 -19 -17 -29 -14 -16 -34 -18 -190 -18 l-173 0 0 28 c0 21 18 46 80 107
44 44 80 85 80 91 0 17 -75 94 -92 94 -8 0 -25 -11 -38 -25 -13 -14 -26 -25
-30 -25 -4 0 -7 212 -8 470 -1 422 2 504 21 458 3 -7 6 -1 6 14 1 15 6 30 11
33 15 9 12 25 -5 25 -8 0 -15 -4 -15 -10 0 -5 -5 -10 -11 -10 -8 0 -10 25 -6
82 3 45 2 76 -2 69 -7 -10 -18 -7 -50 14 -22 15 -41 31 -41 35 0 9 130 28 155
22 11 -3 23 -9 26 -14z m-7954 -20 c-3 -8 -6 -5 -6 6 -1 11 2 17 5 13 3 -3 4
-12 1 -19z m8903 -103 c0 -70 -4 -115 -10 -115 -6 0 -10 45 -10 115 0 70 4
115 10 115 6 0 10 -45 10 -115z m-9263 83 c-3 -8 -6 -5 -6 6 -1 11 2 17 5 13
3 -3 4 -12 1 -19z m7104 -258 c11 -102 27 -214 35 -249 8 -35 21 -108 29 -162
8 -54 26 -133 40 -175 14 -42 25 -81 25 -86 0 -5 11 -38 26 -73 l25 -64 -21
-30 c-32 -42 -20 -84 31 -117 21 -13 39 -27 39 -29 0 -3 -13 -29 -29 -58 -16
-28 -32 -66 -36 -83 l-6 -31 -84 -2 -83 -2 -5 38 c-3 21 -5 157 -5 303 1 259
0 267 -27 365 -15 55 -31 105 -36 111 -5 6 -9 27 -8 45 0 19 -3 57 -6 85 -5
32 -3 59 4 73 9 15 9 26 1 42 -14 26 -15 138 -1 170 6 13 15 56 20 94 8 70 8
70 11 20 2 -39 4 -43 8 -20 l5 30 7 -25 c6 -19 9 -10 11 35 2 47 3 52 6 20 2
-22 13 -123 24 -225z m-44 218 c-3 -7 -5 -2 -5 12 0 14 2 19 5 13 2 -7 2 -19
0 -25z m-3680 -55 c-2 -16 -4 -5 -4 22 0 28 2 40 4 28 2 -13 2 -35 0 -50z
m5940 -50 c-2 -21 -4 -4 -4 37 0 41 2 58 4 38 2 -21 2 -55 0 -75z m-148 5 c-1
-64 -2 -68 -9 -33 -7 36 -3 105 6 105 2 0 3 -33 3 -72z m91 -108 c0 -11 -4
-20 -10 -20 -5 0 -10 9 -10 20 0 11 5 20 10 20 6 0 10 -9 10 -20z m60 5 c0 -8
-4 -15 -10 -15 -5 0 -7 7 -4 15 4 8 8 15 10 15 2 0 4 -7 4 -15z m-3 -152 c-2
-21 -4 -6 -4 32 0 39 2 55 4 38 2 -18 2 -50 0 -70z m-57 32 c0 -30 0 -58 1
-62 0 -4 -4 -9 -10 -11 -7 -2 -11 20 -11 62 0 37 4 66 10 66 6 0 10 -25 10
-55z m97 -27 c-2 -18 -4 -6 -4 27 0 33 2 48 4 33 2 -15 2 -42 0 -60z m-8997
58 c0 -3 -4 -8 -10 -11 -5 -3 -10 -1 -10 4 0 6 5 11 10 11 6 0 10 -2 10 -4z
m2261 -26 c4 14 6 -90 3 -230 -6 -309 -12 -432 -25 -444 -5 -6 -9 126 -8 345
0 261 3 347 11 329 l11 -25 8 25z m-133 -525 c0 -214 -3 -400 -5 -412 l-5 -23
-292 5 c-392 7 -669 14 -673 19 -2 2 4 19 14 39 17 32 22 35 78 40 50 5 63 3
81 -14 28 -27 37 -24 78 21 33 36 36 45 36 99 0 55 -3 61 -39 98 -48 50 -92
60 -153 37 -23 -10 -50 -23 -60 -31 -14 -12 -17 -12 -25 -1 -4 8 -26 25 -48
38 -36 22 -50 25 -135 23 -115 -3 -186 -17 -250 -49 -26 -13 -62 -24 -78 -24
-17 0 -35 -6 -39 -13 -4 -8 -32 -27 -61 -43 -47 -26 -57 -36 -79 -89 -37 -89
-36 -87 -94 -128 -30 -21 -55 -44 -57 -52 -7 -29 28 -27 69 3 l42 31 23 -35
c13 -19 24 -39 24 -45 0 -6 -34 -9 -87 -7 l-88 3 -3 67 c-2 52 -6 67 -19 70
-15 3 -16 27 -14 229 l2 227 -26 20 c-15 12 -32 19 -40 16 -21 -8 -25 35 -23
222 l2 171 28 -8 c15 -4 148 -8 295 -9 148 -1 309 -4 358 -6 158 -7 577 -10
680 -4 55 3 102 3 105 0 6 -6 15 -6 50 3 22 6 221 17 357 21 29 0 54 6 54 11
1 6 6 -21 10 -60 4 -38 8 -245 7 -460z m4232 485 c0 -8 6 -27 14 -41 7 -14 16
-47 20 -73 4 -25 18 -70 31 -99 13 -28 29 -81 35 -117 25 -140 38 -197 73
-318 l21 -72 -27 -65 c-31 -75 -32 -93 -13 -139 13 -30 12 -37 -2 -58 -9 -12
-21 -26 -26 -30 -14 -10 -218 -10 -233 0 -21 13 -16 427 6 502 6 19 13 71 16
115 9 127 26 246 41 293 8 23 14 58 14 77 0 46 10 71 21 53 5 -7 9 -20 9 -28z
m-1010 16 c0 -2 -9 -6 -20 -9 -11 -3 -20 -1 -20 4 0 5 9 9 20 9 11 0 20 -2 20
-4z m-5350 -191 c-1 -105 -6 -185 -11 -185 -5 0 -9 79 -9 185 0 121 4 185 10
185 7 0 10 -63 10 -185z m5460 165 c0 -5 -2 -10 -4 -10 -3 0 -8 5 -11 10 -3 6
-1 10 4 10 6 0 11 -4 11 -10z m-5510 -82 c0 -57 -3 -78 -10 -68 -13 20 -13
150 0 150 6 0 10 -34 10 -82z m2709 -64 c4 -71 14 -143 21 -161 11 -25 11 -39
1 -70 -7 -23 -10 -66 -7 -108 6 -88 14 -222 21 -342 l5 -93 -94 0 c-128 0
-158 7 -150 33 4 14 -1 25 -17 39 l-24 18 21 18 c32 26 46 82 53 216 4 67 12
131 19 143 7 12 12 37 12 55 0 19 7 44 16 56 8 12 22 55 30 94 22 110 66 250
76 240 4 -4 12 -66 17 -138z m-2522 69 c-3 -10 -5 -2 -5 17 0 19 2 27 5 18 2
-10 2 -26 0 -35z m-40 5 c-3 -7 -5 -2 -5 12 0 14 2 19 5 13 2 -7 2 -19 0 -25z
m8806 -7 c5 -22 -1 -33 -14 -25 -12 7 -12 44 0 44 5 0 11 -9 14 -19z m-5593
-77 c81 -10 160 -28 161 -37 0 -7 4 -3 9 8 7 17 9 16 10 -10 2 -30 2 -30 10
-5 6 18 8 7 9 -41 1 -56 5 -69 26 -89 l24 -23 -21 -41 c-19 -37 -21 -55 -19
-181 2 -77 2 -156 0 -175 -4 -48 -1 -106 6 -161 6 -39 3 -50 -18 -74 -44 -52
-67 -13 -67 113 0 51 0 52 -30 52 -26 0 -30 -4 -30 -28 0 -41 -20 -61 -65 -64
l-40 -3 2 180 c1 99 2 284 4 410 1 127 4 217 8 200 3 -16 13 -31 21 -31z
m-237 -119 c6 -145 1 -185 -21 -171 -7 4 -10 56 -10 134 1 247 22 272 31 37z
m5476 115 c1 -13 0 -13 -9 0 -5 8 -9 24 -9 35 l0 20 9 -20 c5 -11 9 -27 9 -35z
m-9142 18 c-3 -8 -6 -5 -6 6 -1 11 2 17 5 13 3 -3 4 -12 1 -19z m730 -65 c-2
-16 -4 -3 -4 27 0 30 2 43 4 28 2 -16 2 -40 0 -55z m8860 -30 c-2 -21 -4 -4
-4 37 0 41 2 58 4 38 2 -21 2 -55 0 -75z m-8900 45 c-2 -13 -4 -5 -4 17 -1 22
1 32 4 23 2 -10 2 -28 0 -40z m2923 -133 c0 -117 -4 -185 -10 -185 -6 0 -10
48 -10 124 0 117 9 246 16 246 2 0 4 -83 4 -185z m5888 116 c-1 -28 -7 -52
-13 -54 -11 -2 -19 87 -10 111 12 31 27 -6 23 -57z m49 -23 c-2 -18 -4 -4 -4
32 0 36 2 50 4 33 2 -18 2 -48 0 -65z m-9001 -134 c-21 -56 -37 73 -19 157 6
28 9 19 16 -54 5 -48 6 -95 3 -103z m3890 136 c4 -11 9 -9 19 10 l14 25 2 -25
c1 -23 2 -23 9 5 6 22 8 25 10 10 1 -11 2 -24 1 -29 -1 -4 9 -22 21 -40 47
-63 62 -113 77 -267 5 -47 14 -95 20 -107 6 -11 11 -49 11 -85 0 -35 3 -67 7
-71 4 -3 8 -52 10 -107 l4 -100 -126 3 -126 3 -3 75 c-1 41 -9 84 -16 96 -11
18 -9 34 11 110 19 73 23 116 24 239 2 148 16 329 23 290 2 -11 5 -27 8 -35z
m-4295 -78 c-8 -12 -10 0 -10 48 l1 65 9 -48 c6 -31 6 -54 0 -65z m9038 28 c0
-26 -20 -60 -35 -60 -6 0 -6 26 0 65 9 60 11 63 23 43 7 -13 12 -34 12 -48z
m-4358 51 c7 11 11 11 17 1 5 -7 22 -11 42 -9 18 2 50 0 69 -5 51 -12 106 -17
250 -23 69 -3 137 -7 151 -8 14 -1 28 1 31 6 10 14 21 -370 17 -568 l-3 -170
-266 -3 c-290 -3 -299 -1 -259 51 17 21 20 43 21 153 1 88 -3 148 -14 189 -9
33 -19 101 -22 150 -5 59 -16 110 -31 147 -13 32 -24 68 -23 80 0 13 3 17 6 9
5 -11 7 -11 14 0z m836 -17 c2 -13 1 -15 -4 -4 -3 8 -11 19 -17 23 -7 6 -6 7
4 4 8 -2 16 -12 17 -23z m-5171 -272 c7 -235 6 -252 -10 -252 -14 0 -17 7 -13
43 2 23 1 136 -3 252 -5 115 -6 214 -3 218 16 26 23 -33 29 -261z m201 216
c-2 -13 -4 -5 -4 17 -1 22 1 32 4 23 2 -10 2 -28 0 -40z m52 0 c1 -10 -3 -18
-9 -18 -5 0 -10 17 -9 38 0 30 2 33 9 17 5 -11 9 -28 9 -37z m4852 -591 c-8
-8 -11 83 -9 319 l1 329 9 -319 c7 -226 6 -322 -1 -329z m-2064 596 c-3 -10
-5 -4 -5 12 0 17 2 24 5 18 2 -7 2 -21 0 -30z m2013 28 c0 -5 -9 -7 -20 -4
-11 3 -20 7 -20 9 0 2 9 4 20 4 11 0 20 -4 20 -9z m-81 -416 c2 -140 -1 -205
-8 -205 -8 0 -11 85 -10 273 1 165 5 246 9 205 3 -37 8 -160 9 -273z m-1932
213 c-2 -24 -4 -7 -4 37 0 44 2 63 4 43 2 -21 2 -57 0 -80z m-3378 -130 c1
-59 -3 -109 -8 -112 -11 -7 -21 16 -16 40 2 11 4 78 6 149 1 104 3 120 9 80 5
-27 9 -98 9 -157z m3628 110 c-3 -7 -5 -2 -5 12 0 14 2 19 5 13 2 -7 2 -19 0
-25z m50 -10 c1 -37 0 -39 -8 -19 -8 19 -5 61 5 61 1 0 2 -19 3 -42z m1713
-180 c0 -117 -4 -208 -8 -202 -8 9 -4 414 4 414 2 0 4 -95 4 -212z m-1876 193
c3 -4 3 -11 0 -14 -8 -8 -34 3 -34 14 0 11 27 12 34 0z m-1 -56 c1 -5 -6 -11
-15 -13 -11 -2 -18 3 -18 13 0 17 30 18 33 0z m-51 -10 c0 -5 -5 -11 -11 -13
-6 -2 -11 4 -11 13 0 9 5 15 11 13 6 -2 11 -8 11 -13z m217 -82 c0 -16 -4 -37
-9 -48 -7 -15 -9 -7 -7 27 2 50 18 69 16 21z m-217 -11 c5 -35 0 -52 -16 -52
-7 0 -10 14 -8 40 5 46 18 53 24 12z m58 6 c0 -30 -15 -52 -29 -44 -6 4 -11
20 -11 37 0 22 5 29 20 29 14 0 20 -7 20 -22z m2759 -143 c1 -17 -4 -36 -11
-43 -8 -8 -8 -12 -1 -12 6 0 10 -25 9 -65 0 -36 -4 -65 -8 -65 -3 0 -15 -3
-25 -6 -15 -5 -16 -4 -3 5 11 8 12 13 4 19 -8 4 -12 44 -13 110 0 83 2 102 14
102 8 0 15 6 16 13 1 23 18 -28 18 -58z m-4971 -122 l72 -5 0 -45 0 -46 -37 7
c-21 3 -55 6 -75 6 -24 0 -38 5 -38 13 0 7 -9 30 -19 51 l-20 38 22 -7 c12 -4
55 -9 95 -12z m4082 -13 c0 -5 -4 -10 -10 -10 -5 0 -10 5 -10 10 0 6 5 10 10
10 6 0 10 -4 10 -10z m-82 -55 c-3 -29 -18 -34 -18 -7 0 17 8 32 17 32 1 0 2
-11 1 -25z m142 1 c0 -14 -4 -28 -10 -31 -6 -4 -10 7 -10 24 0 17 5 31 10 31
6 0 10 -11 10 -24z m-3410 -6 c0 -19 -7 -20 -250 -20 -209 0 -250 2 -250 14 0
8 6 17 13 19 6 3 119 6 250 6 231 1 237 0 237 -19z m213 14 c3 -3 3 -12 0 -20
-7 -20 -153 -20 -153 -1 0 8 3 17 7 20 8 9 137 9 146 1z m190 -4 c92 0 117 -3
117 -14 0 -25 -137 -29 -182 -5 -9 5 -35 9 -57 9 -24 0 -41 5 -41 11 0 7 9 9
23 5 12 -3 75 -6 140 -6z m2947 -9 c0 -11 -4 -23 -10 -26 -6 -4 -10 5 -10 19
0 14 5 26 10 26 6 0 10 -9 10 -19z m-2226 0 c15 -24 -26 -32 -146 -29 -107 3
-123 5 -126 21 -3 15 8 17 132 17 74 0 137 -4 140 -9z m586 -21 c0 -5 -7 -10
-15 -10 -8 0 -15 5 -15 10 0 6 7 10 15 10 8 0 15 -4 15 -10z m-2321 -275 c8
-16 17 -68 19 -114 l5 -84 -69 6 c-118 11 -194 28 -194 43 0 8 11 41 25 74 14
33 25 65 25 71 0 27 35 39 105 36 67 -2 70 -3 84 -32z m480 11 c19 -15 -15
-24 -97 -25 -59 -1 -122 20 -122 40 0 10 204 -3 219 -15z m376 4 c-45 -11 -85
-11 -85 0 0 6 25 9 58 9 47 -1 52 -3 27 -9z m-1183 -36 c4 -3 -3 -32 -14 -65
l-20 -59 -44 0 c-37 0 -44 3 -44 19 0 25 -25 34 -41 14 -10 -11 -27 -14 -70
-11 -71 5 -92 20 -77 54 11 23 38 35 108 47 39 7 196 8 202 1z m493 -74 c3 -5
19 -10 35 -10 53 0 60 -8 60 -67 l0 -55 -77 7 c-43 4 -81 9 -85 12 -5 2 -8 20
-8 40 0 51 55 105 75 73z m1523 -32 c3 -16 -8 -18 -117 -18 -98 0 -121 3 -121
14 0 21 15 24 130 22 91 -1 105 -3 108 -18z m1532 -3 c0 -13 -50 -15 -370 -15
-346 0 -370 1 -370 18 0 16 23 17 370 14 318 -2 370 -5 370 -17z m97 -7 c-3
-8 -6 -5 -6 6 -1 11 2 17 5 13 3 -3 4 -12 1 -19z m63 7 c0 -8 -4 -15 -10 -15
-5 0 -10 7 -10 15 0 8 5 15 10 15 6 0 10 -7 10 -15z m400 0 c0 -13 -27 -15
-180 -15 -153 0 -180 2 -180 15 0 13 27 15 180 15 153 0 180 -2 180 -15z m960
-2 c0 -10 -68 -13 -305 -13 -261 0 -305 2 -305 15 0 12 43 14 305 12 236 -2
305 -5 305 -14z m1180 6 c0 -4 -7 -10 -16 -13 -28 -11 -944 -7 -944 4 0 8 435
15 927 15 18 0 33 -3 33 -6z m1571 -9 c0 -10 3 -8 9 5 6 13 9 -14 9 -77 1 -95
0 -98 -21 -98 -37 0 -68 -11 -68 -24 1 -6 20 -20 43 -32 40 -19 42 -22 45 -71
3 -60 13 -56 -158 -73 -58 -7 -127 -16 -154 -21 -87 -16 -85 -19 -116 106 -7
28 -16 55 -21 60 -8 11 -59 208 -59 228 0 10 56 13 245 12 211 0 245 -2 246
-15z m-8709 -5 l46 -7 -15 -46 c-9 -26 -19 -51 -24 -57 -4 -6 -42 -9 -88 -7
l-81 4 0 63 0 63 58 -4 c31 -1 78 -6 104 -9z m1518 -35 c0 -33 -4 -50 -12 -50
-9 0 -12 15 -10 50 5 65 22 65 22 0z m710 -70 c0 -73 -4 -120 -10 -120 -6 0
-10 41 -10 104 0 94 5 136 16 136 2 0 4 -54 4 -120z m3940 110 c0 -5 -7 -10
-15 -10 -8 0 -15 5 -15 10 0 6 7 10 15 10 8 0 15 -4 15 -10z m-3883 -152 c-2
-29 -3 -8 -3 47 0 55 1 79 3 53 2 -26 2 -71 0 -100z m-2550 85 c-4 -17 -4 -17
-12 0 -4 9 -4 25 0 35 8 16 8 16 12 0 3 -10 3 -26 0 -35z m411 -7 c4 -58 -3
-67 -44 -58 l-31 7 20 53 c26 69 51 68 55 -2z m1422 8 c0 -22 -2 -25 -15 -14
-8 7 -15 19 -15 26 0 8 7 14 15 14 10 0 15 -10 15 -26z m6568 -34 c9 -43 64
-250 78 -297 6 -20 3 -23 -24 -23 -17 0 -37 -3 -46 -6 -25 -9 -21 43 4 58 11
7 20 17 20 22 0 4 -9 6 -20 3 -17 -4 -20 0 -20 28 0 18 -4 35 -10 37 -8 2 -15
134 -11 218 1 35 17 14 29 -40z m-6505 -7 c19 -29 26 -54 29 -105 2 -38 1 -68
-3 -68 -4 0 -22 29 -40 65 -31 63 -31 66 -13 79 18 14 18 15 1 33 -19 21 -22
33 -8 33 4 0 20 -17 34 -37z m-1057 2 c18 -13 17 -14 -18 -15 -27 0 -38 4 -38
15 0 19 30 19 56 0z m252 -1 c18 -5 22 -13 22 -50 0 -51 -17 -69 -22 -22 -2
25 -8 34 -25 36 -15 2 -23 10 -23 23 0 20 10 23 48 13z m175 -24 c18 0 16 -5
-18 -40 -46 -47 -58 -50 -49 -12 13 57 16 63 31 58 8 -3 24 -6 36 -6z m215
-29 c10 -6 -1 -17 -38 -41 -28 -18 -54 -30 -57 -26 -8 8 57 76 71 76 6 0 17
-4 24 -9z m-1478 -22 c0 -11 -4 -17 -10 -14 -5 3 -10 13 -10 21 0 8 5 14 10
14 6 0 10 -9 10 -21z m228 1 c6 0 12 -7 12 -15 0 -16 -22 -11 -55 13 -19 14
-19 14 5 8 14 -3 31 -6 38 -6z m1465 -6 c46 -6 47 -7 47 -41 0 -38 3 -39 -75
15 -61 41 -66 46 -40 39 11 -3 41 -9 68 -13z m-1534 -15 c28 -12 51 -24 51
-28 0 -3 -10 -11 -22 -16 -13 -6 -23 -19 -23 -29 0 -13 -10 -22 -29 -27 -17
-5 -32 -7 -34 -4 -7 6 -7 125 -1 125 4 0 29 -10 58 -21z m201 1 c-36 -11 -50
-11 -50 0 0 6 17 10 38 9 33 -1 34 -2 12 -9z m1268 -27 c51 -30 41 -41 -24
-28 -28 5 -34 10 -34 30 0 31 1 31 58 -2z m152 -8 c0 -19 -4 -35 -8 -35 -4 0
-6 16 -4 35 2 19 6 35 8 35 2 0 4 -16 4 -35z m45 8 c-2 -16 -4 -34 -4 -40 -1
-7 -5 -13 -11 -13 -5 0 -10 18 -10 40 0 28 4 40 14 40 10 0 13 -9 11 -27z
m-335 2 c0 -9 -9 -15 -21 -15 -18 0 -19 2 -9 15 7 8 16 15 21 15 5 0 9 -7 9
-15z m375 -15 c19 -37 19 -40 -5 -40 -16 0 -20 7 -20 35 0 43 5 44 25 5z
m-890 -10 c4 -6 -11 -10 -37 -10 -31 0 -39 3 -28 10 20 13 57 13 65 0z m-975
-25 c0 -14 -4 -25 -10 -25 -5 0 -10 11 -10 25 0 14 5 25 10 25 6 0 10 -11 10
-25z m2488 -10 c1 -19 -3 -35 -8 -35 -6 0 -10 16 -10 35 0 19 4 35 8 35 5 0 9
-16 10 -35z m506 -15 c-33 -22 -61 -40 -64 -40 -3 0 -5 18 -5 40 l0 40 64 0
64 0 -59 -40z m170 5 c-1 -16 -3 -68 -3 -115 l-2 -85 -102 -64 c-129 -81 -131
-80 -135 61 l-3 104 98 67 c111 75 149 84 147 32z m716 33 c0 -2 7 -138 15
-302 11 -223 19 -305 29 -321 10 -16 17 -71 22 -190 l7 -167 -24 7 c-13 4 -41
19 -61 33 l-38 25 0 458 0 459 25 0 c14 0 25 -1 25 -2z m149 -333 c-1 -333
-11 -434 -23 -247 -18 272 -26 396 -30 485 l-5 97 30 0 30 0 -2 -335z m38 98
c2 -141 0 -233 -5 -237 -16 -10 -20 31 -20 257 0 141 4 217 10 215 6 -2 12
-93 15 -235z m40 225 c5 -8 6 -81 2 -173 -4 -88 -7 -190 -8 -227 -1 -38 -5
-68 -11 -68 -6 0 -10 87 -10 240 0 132 4 240 9 240 5 0 13 -6 18 -12z m586
-190 c-2 -112 -5 -210 -6 -219 -2 -16 -150 111 -382 327 l-100 94 246 0 245 0
-3 -202z m117 92 c0 -67 -4 -110 -10 -110 -6 0 -10 43 -10 110 0 67 4 110 10
110 6 0 10 -43 10 -110z m49 5 c-3 -146 -19 -156 -19 -12 0 76 4 117 11 117 7
0 10 -36 8 -105z m403 28 c1 -43 3 -166 3 -273 1 -181 0 -197 -19 -223 -11
-15 -27 -27 -35 -27 -9 0 -50 -9 -91 -19 -41 -10 -78 -16 -82 -12 -4 4 -10 54
-13 111 -5 94 -12 120 -35 120 -22 0 -33 -25 -37 -86 -6 -93 -11 -114 -27
-114 -20 0 -24 54 -25 343 l-1 257 180 0 180 0 2 -77z m888 67 c0 -9 -85 -123
-265 -354 -148 -190 -140 -183 -212 -191 l-62 -6 -3 271 c-2 148 -1 275 0 280
5 13 542 14 542 0z m1218 -7 c-8 -10 -23 -13 -42 -10 -29 5 -30 5 -6 -5 25
-10 23 -12 -76 -113 l-100 -103 -82 -7 c-45 -4 -85 -11 -87 -15 -3 -5 -6 -20
-7 -34 -1 -14 -7 -26 -13 -26 -21 0 -55 31 -55 51 0 15 -7 19 -34 19 -39 0
-46 -14 -46 -93 0 -52 0 -52 -71 -62 l-46 -6 -34 88 c-19 48 -33 94 -33 101 1
6 -2 12 -6 12 -5 0 -10 10 -12 23 -3 20 -7 22 -53 18 -27 -2 -62 -4 -78 -5
-19 -2 -32 5 -42 21 -10 14 -25 23 -41 23 -25 0 -25 1 -18 63 4 34 9 66 11 70
3 4 225 7 494 6 427 -1 488 -4 477 -16z m344 5 c2 -7 6 -50 7 -95 3 -94 10
-88 -114 -98 -44 -3 -100 -8 -125 -11 l-45 -6 29 31 c17 17 36 31 43 31 7 0
13 5 13 12 0 6 32 42 71 80 69 66 111 86 121 56z m-2985 -35 c-3 -10 -5 -4 -5
12 0 17 2 24 5 18 2 -7 2 -21 0 -30z m-3281 17 c24 0 44 -4 44 -10 0 -11 -88
-14 -114 -4 -9 3 -13 10 -10 16 3 5 13 7 21 4 8 -3 35 -6 59 -6z m-493 -19
c35 -1 47 -5 47 -16 0 -8 -8 -15 -17 -15 -41 0 -193 23 -193 30 0 14 11 16 62
9 29 -4 74 -8 101 -8z m745 -7 c52 -8 38 -26 -15 -19 -93 12 -113 16 -113 24
0 8 57 6 128 -5z m2431 -418 c-9 -8 -10 27 -5 143 3 85 7 186 8 225 2 39 4
-25 5 -143 3 -152 0 -218 -8 -225z m618 301 c-2 -23 -3 -1 -3 48 0 50 1 68 3
42 2 -26 2 -67 0 -90z m-2967 103 c0 -5 -4 -10 -10 -10 -5 0 -10 5 -10 10 0 6
5 10 10 10 6 0 10 -4 10 -10z m4440 -14 c0 -16 -7 -27 -20 -31 -11 -3 -20 -11
-20 -16 0 -5 9 -9 20 -9 19 0 20 -7 20 -106 0 -80 -3 -105 -12 -102 -8 3 -14
28 -16 64 -4 61 -16 89 -31 66 -8 -13 -5 -227 4 -250 2 -7 -1 -15 -8 -17 -22
-9 -297 -42 -297 -36 0 3 9 17 20 31 39 49 186 239 258 334 40 53 75 96 77 96
3 0 5 -11 5 -24z m-5812 -8 c3 -18 -17 -30 -73 -44 -23 -6 -25 -3 -25 30 l0
37 47 -3 c36 -2 49 -7 51 -20z m4319 -100 c-2 -24 -4 -5 -4 42 0 47 2 66 4 43
2 -24 2 -62 0 -85z m-2817 102 c0 -5 -6 -10 -14 -10 -8 0 -18 5 -21 10 -3 6 3
10 14 10 12 0 21 -4 21 -10z m-1770 -5 c0 -3 -7 -22 -16 -43 -14 -32 -17 -34
-23 -18 -12 31 -1 66 20 66 11 0 19 -2 19 -5z m139 -86 l-2 -90 -22 21 c-19
18 -22 29 -18 68 7 74 12 92 29 92 12 0 15 -15 13 -91z m1210 75 c12 -11 -15
-13 -97 -8 -51 4 -92 11 -92 17 0 8 179 0 189 -9z m-729 -25 c0 -5 -4 -9 -10
-9 -5 0 -10 7 -10 16 0 8 5 12 10 9 6 -3 10 -10 10 -16z m238 -23 c-4 -25 -58
-38 -137 -34 -51 3 -55 5 -62 32 -5 16 -7 32 -5 35 2 3 50 2 106 -3 93 -9 101
-11 98 -30z m1492 9 c0 -13 -4 -27 -10 -30 -6 -4 -10 8 -10 30 0 22 4 34 10
30 6 -3 10 -17 10 -30z m-781 9 c2 -2 2 -7 -2 -10 -10 -10 -137 7 -137 18 0
10 128 2 139 -8z m-1709 -4 c0 -5 -4 -10 -10 -10 -5 0 -10 5 -10 10 0 6 5 10
10 10 6 0 10 -4 10 -10z m1110 -8 c0 -8 -43 -32 -55 -32 -3 0 -5 9 -5 20 0 16
7 20 30 20 17 0 30 -4 30 -8z m-700 -11 c0 -6 -5 -13 -10 -16 -7 -4 -7 -12 0
-24 5 -10 7 -21 4 -23 -2 -3 -5 -37 -5 -77 -1 -77 0 -76 -56 -32 -31 25 -33
29 -33 93 0 63 1 67 28 76 35 13 72 15 72 3z m955 -1 c39 -6 82 -13 98 -16
l27 -6 0 -106 -1 -107 -32 35 c-17 20 -54 60 -80 90 -26 30 -62 70 -79 88 -36
36 -35 36 67 22z m556 0 c31 -17 23 -44 -16 -56 l-35 -11 0 38 c0 42 13 49 51
29z m-71 -41 c0 -16 -4 -29 -10 -29 -5 0 -10 16 -10 36 0 21 4 33 10 29 6 -3
10 -19 10 -36z m-695 21 c3 -5 -1 -10 -10 -10 -9 0 -13 5 -10 10 3 6 8 10 10
10 2 0 7 -4 10 -10z m8889 -6 c15 -38 7 -44 -30 -22 -32 19 -35 23 -18 29 30
12 41 10 48 -7z m-8264 -28 c0 -46 -16 -55 -23 -13 -5 34 -1 47 14 47 5 0 9
-15 9 -34z m-68 -13 c-9 -56 -72 -76 -72 -23 0 31 20 49 56 50 18 0 20 -5 16
-27z m8161 13 c15 -12 17 -33 17 -193 0 -99 -3 -215 -7 -257 l-6 -78 -83 -38
c-138 -64 -124 -77 -124 114 l0 166 40 0 c52 0 53 20 0 57 l-40 28 0 97 0 97
38 6 c20 4 44 8 52 10 38 8 97 3 113 -9z m-8617 -70 c28 -31 56 -56 62 -56 5
0 33 -24 61 -52 l51 -53 -23 -17 c-12 -10 -52 -38 -90 -64 l-67 -46 -88 73
c-48 40 -90 78 -94 84 -4 5 -7 52 -7 102 l0 93 35 -5 c19 -2 32 0 30 4 -3 5
14 5 37 1 34 -7 52 -19 93 -64z m1234 43 c0 -11 -4 -17 -10 -14 -5 3 -10 13
-10 21 0 8 5 14 10 14 6 0 10 -9 10 -21z m-1536 -8 c-28 -17 -64 -17 -64 0 0
7 13 10 74 16 15 2 12 -3 -10 -16z m656 -117 c0 -124 -2 -135 -17 -132 -15 3
-18 15 -18 70 0 36 -2 69 -5 71 -3 3 -3 33 -2 66 3 52 7 61 23 61 18 0 19 -9
19 -136z m-1423 104 c-3 -8 -6 -5 -6 6 -1 11 2 17 5 13 3 -3 4 -12 1 -19z
m1758 -10 c7 -28 3 -35 -26 -60 -19 -15 -37 -28 -41 -28 -5 0 -8 24 -8 54 0
57 1 58 57 65 6 0 15 -13 18 -31z m2865 22 c0 -5 -4 -10 -10 -10 -5 0 -10 5
-10 10 0 6 5 10 10 10 6 0 10 -4 10 -10z m-3945 -30 c17 -19 17 -20 -6 -30
-13 -6 -42 -22 -64 -35 -22 -14 -43 -25 -47 -25 -5 0 -8 18 -8 39 0 37 2 40
43 54 58 20 61 20 82 -3z m145 5 c0 -10 -10 -15 -27 -15 -27 1 -27 1 -9 15 25
19 36 19 36 0z m835 -42 c4 -27 2 -43 -5 -43 -5 0 -10 21 -10 47 0 55 6 54 15
-4z m1315 -8 l0 -55 -47 1 c-27 1 -59 4 -72 8 -22 6 -18 10 45 53 38 26 70 47
72 48 1 0 2 -25 2 -55z m1567 23 c-3 -7 -5 -2 -5 12 0 14 2 19 5 13 2 -7 2
-19 0 -25z m83 -3 c0 -19 -4 -35 -10 -35 -5 0 -10 16 -10 35 0 19 5 35 10 35
6 0 10 -16 10 -35z m37 -12 c-3 -10 -5 -2 -5 17 0 19 2 27 5 18 2 -10 2 -26 0
-35z m5181 15 c31 -17 59 -33 61 -34 3 -3 68 -219 78 -259 4 -17 -5 -25 -50
-43 -39 -16 -65 -21 -89 -17 -26 5 -40 1 -62 -16 l-29 -23 6 55 c4 30 9 125
13 212 4 86 8 157 10 157 3 0 30 -14 62 -32z m-9758 -4 c0 -2 -9 0 -20 6 -11
6 -20 13 -20 16 0 2 9 0 20 -6 11 -6 20 -13 20 -16z m1510 -14 c0 -30 -4 -40
-16 -40 -15 0 -15 5 -4 78 0 1 5 2 10 2 6 0 10 -18 10 -40z m-1592 -28 c3 -56
-5 -63 -32 -33 -16 17 -16 24 -5 55 18 49 33 40 37 -22z m1506 -44 c-5 -67
-12 -96 -23 -105 -23 -16 -26 -4 -30 92 -2 81 -1 86 21 94 13 6 27 10 31 10 4
1 5 -41 1 -91z m7299 70 c-2 -5 -3 -21 -3 -37 0 -26 -5 -30 -47 -41 l-48 -12
23 -18 22 -19 -22 -7 c-13 -4 -63 -26 -111 -49 l-88 -43 -9 24 c-20 51 -50
148 -50 159 0 8 50 18 143 29 78 10 144 20 147 22 7 8 45 0 43 -8z m-8065 -15
c2 -8 -6 -13 -22 -13 -13 0 -36 -4 -50 -10 -35 -13 -33 -6 7 19 34 22 58 24
65 4z m799 -80 c-2 -21 -4 -6 -4 32 0 39 2 55 4 38 2 -18 2 -50 0 -70z m-1458
73 c9 -11 8 -15 -5 -20 -26 -10 -34 -7 -34 14 0 23 22 27 39 6z m1694 -106
c-5 -135 -26 -250 -47 -262 -8 -5 -13 -15 -10 -23 4 -8 1 -15 -6 -15 -10 0
-11 34 -8 146 4 117 2 147 -8 151 -8 3 -14 17 -14 32 1 19 11 33 43 53 23 15
45 28 48 28 3 0 4 -50 2 -110z m2845 45 c2 -28 -1 -45 -7 -45 -7 0 -11 22 -11
52 0 61 12 56 18 -7z m-4430 2 c18 -17 22 -31 22 -79 0 -32 -3 -58 -8 -58 -4
0 -24 11 -45 25 -36 25 -37 27 -37 91 0 64 0 65 23 53 12 -6 32 -21 45 -32z
m8139 37 c32 -6 33 -8 73 -142 l19 -63 -22 6 c-12 4 -62 25 -110 48 l-88 41 3
50 c3 48 5 51 33 57 43 9 59 10 92 3z m1686 -38 l57 -37 0 -59 c0 -54 -2 -60
-31 -81 -17 -12 -34 -18 -38 -13 -5 5 -20 52 -34 104 -14 52 -29 104 -33 114
-10 25 4 20 79 -28z m-9212 14 c36 -20 17 -130 -23 -130 -4 0 -8 32 -8 70 0
39 3 70 6 70 3 0 14 -5 25 -10z m789 -14 c0 -24 -16 -43 -26 -33 -8 7 7 57 17
57 5 0 9 -11 9 -24z m2947 -28 c-2 -13 -4 -5 -4 17 -1 22 1 32 4 23 2 -10 2
-28 0 -40z m1492 0 c-1 -45 -2 -49 -9 -23 -11 44 -11 75 0 75 6 0 9 -23 9 -52z
m-5289 18 c0 -19 -7 -25 -42 -34 -85 -21 -88 -21 -88 -1 0 16 20 35 42 38 4 1
13 3 20 6 13 4 46 12 61 14 4 0 7 -10 7 -23z m3917 -8 c-3 -7 -5 -2 -5 12 0
14 2 19 5 13 2 -7 2 -19 0 -25z m-4577 -8 c0 -28 -2 -29 -20 -18 -23 14 -26
34 -7 41 23 10 27 7 27 -23z m2767 -30 c43 -27 71 -50 63 -51 -37 -2 -147 2
-162 7 -26 8 -15 94 12 94 5 0 45 -22 87 -50z m-2865 21 c9 -13 12 -53 10
-148 -3 -115 -5 -130 -23 -141 -19 -12 -19 -8 -19 148 0 94 4 160 9 160 6 0
16 -8 23 -19z m1668 9 c0 -5 -5 -10 -11 -10 -5 0 -7 5 -4 10 3 6 8 10 11 10 2
0 4 -4 4 -10z m1283 4 c33 -6 37 -10 37 -35 0 -16 -2 -29 -4 -29 -8 0 -96 61
-96 66 0 6 18 5 63 -2z m3277 -14 c9 -16 8 -20 -5 -20 -8 0 -15 9 -15 20 0 11
2 20 5 20 2 0 9 -9 15 -20z m-5634 -25 c-3 -8 -10 -15 -16 -15 -14 0 -12 37 3
43 15 5 21 -8 13 -28z m343 -28 c25 -23 61 -55 80 -70 36 -30 35 -34 -15 -64
-17 -10 -51 -32 -75 -49 l-44 -32 0 129 c0 71 2 129 4 129 2 0 25 -19 50 -43z
m-183 -41 c-7 -26 -125 -96 -161 -96 -25 0 -26 2 -23 57 l3 58 90 21 c89 21
90 21 93 2 2 -11 1 -30 -2 -42z m554 -32 l0 -63 -45 -31 c-25 -17 -49 -30 -54
-28 -4 2 -31 24 -60 50 l-51 46 47 31 c44 29 60 40 110 77 15 10 21 10 36 -3
13 -12 17 -32 17 -79z m7519 -102 l0 -187 -41 -13 c-22 -7 -44 -9 -48 -5 -8
10 -31 66 -65 163 -40 110 -50 123 -88 115 l-32 -6 30 18 c49 30 230 111 236
107 4 -2 7 -88 8 -192z m-8729 90 c0 -72 -9 -102 -32 -102 -4 0 -8 45 -8 100
0 98 1 100 20 90 17 -9 20 -21 20 -88z m4540 64 c0 -14 -4 -28 -10 -31 -6 -4
-10 7 -10 24 0 17 5 31 10 31 6 0 10 -11 10 -24z m37 2 c-3 -8 -6 -5 -6 6 -1
11 2 17 5 13 3 -3 4 -12 1 -19z m-781 -25 c-1 -21 -6 -37 -11 -35 -14 3 -12
72 2 72 7 0 11 -14 9 -37z m31 -3 c-3 -42 -17 -37 -17 6 0 20 4 33 10 29 5 -3
8 -19 7 -35z m35 -4 c-6 -48 -12 -46 -12 5 0 22 4 38 8 35 4 -3 6 -21 4 -40z
m-3769 -23 l27 -21 -36 -21 c-19 -12 -37 -21 -40 -21 -2 0 -4 23 -4 51 0 40 3
49 13 42 6 -5 24 -19 40 -30z m1315 -15 l-3 -23 -13 23 c-11 19 -11 26 0 39
12 15 13 15 16 0 2 -9 2 -27 0 -39z m-672 7 c-1 -34 -21 -59 -38 -49 -12 8 -9
59 4 72 22 22 35 13 34 -23z m6194 25 c11 -7 0 -10 -38 -10 -33 0 -51 4 -47
10 8 13 65 13 85 0z m-4069 -17 l29 -5 0 -111 0 -110 -67 6 c-38 4 -92 7 -120
7 l-53 0 0 116 0 117 91 -7 c50 -4 104 -9 120 -13z m-2201 -39 c0 -14 -3 -23
-7 -21 -5 3 -17 0 -28 -4 -19 -9 -19 -9 2 -5 26 5 33 -10 33 -69 0 -70 -10
-105 -31 -105 -10 0 -24 8 -31 18 -7 10 -34 35 -60 56 -27 21 -48 41 -48 45 0
3 21 18 48 31 26 14 50 29 53 33 5 7 58 44 67 46 1 1 2 -11 2 -25z m5875 6
c-3 -5 -13 -10 -21 -10 -8 0 -14 5 -14 10 0 6 9 10 21 10 11 0 17 -4 14 -10z
m-2741 -30 c-1 -44 -14 -50 -14 -7 0 21 3 37 8 37 4 0 7 -14 6 -30z m63 -32
c-2 -13 -4 -3 -4 22 0 25 2 35 4 23 2 -13 2 -33 0 -45z m-2829 6 c29 -26 52
-50 50 -55 -2 -5 -66 -52 -143 -104 l-140 -95 -6 54 c-12 104 -11 105 76 168
44 31 85 61 90 67 15 15 16 15 73 -35z m312 -87 c0 -82 -6 -97 -36 -97 -2 0
-4 52 -4 116 l0 117 20 -26 c16 -21 20 -40 20 -110z m2477 111 c-3 -8 -6 -5
-6 6 -1 11 2 17 5 13 3 -3 4 -12 1 -19z m3468 2 c3 -6 -1 -7 -9 -4 -18 7 -21
14 -7 14 6 0 13 -4 16 -10z m2697 -89 c-2 -50 -8 -91 -13 -91 -5 0 -9 13 -9
29 0 16 -4 40 -9 53 -14 38 -23 100 -14 95 5 -3 15 -2 23 3 8 5 17 7 20 5 3
-2 4 -44 2 -94z m-9852 57 c0 -18 -4 -39 -8 -46 -9 -14 -73 -62 -83 -62 -6 0
-4 89 3 94 23 16 75 46 81 46 4 0 7 -15 7 -32z m364 10 c-3 -4 -9 -8 -15 -8
-5 0 -9 4 -9 8 0 5 7 9 15 9 8 0 12 -4 9 -9z m5706 2 c-14 -4 -41 -8 -60 -8
-28 -1 -31 1 -15 8 11 5 38 8 60 8 34 0 36 -1 15 -8z m1155 0 c25 -11 -1 -11
-35 0 -20 6 -21 8 -5 8 11 0 29 -3 40 -8z m-213 -19 c53 -18 138 -59 128 -61
-3 -1 -16 -3 -30 -5 -14 -2 -54 -8 -90 -14 -36 -6 -77 -11 -92 -11 -27 0 -28
2 -28 48 0 27 3 52 7 55 11 12 48 8 105 -12z m-6407 -23 c-2 -18 -3 -38 -4
-43 -1 -6 -10 -16 -21 -23 -19 -12 -20 -10 -20 37 0 49 3 53 41 60 4 0 5 -14
4 -31z m6235 -22 c0 -53 -1 -54 -32 -60 -26 -5 -307 -36 -324 -36 -16 0 4 34
44 73 l49 48 104 10 c57 6 106 13 108 15 2 2 15 4 28 4 21 0 23 -4 23 -54z
m-5760 -7 c0 -48 -1 -50 -17 -38 -51 40 -53 49 -20 72 34 24 37 21 37 -34z
m4669 31 c-8 -5 -51 -11 -95 -14 l-79 -5 85 13 c110 17 108 17 89 6z m-4485
-113 c-3 -51 -8 -94 -10 -96 -2 -2 -4 42 -4 98 0 68 3 100 10 96 7 -4 8 -39 4
-98z m7023 3 c18 -52 31 -96 28 -98 -2 -2 -21 0 -42 5 l-38 9 -3 93 c-4 119
10 117 55 -9z m-3610 37 c7 -5 10 -13 7 -18 -6 -10 -54 18 -54 32 0 9 28 1 47
-14z m680 17 c-3 -3 -12 -4 -19 -1 -8 3 -5 6 6 6 11 1 17 -2 13 -5z m2679 -36
c-3 -24 -5 -46 -5 -50 -1 -4 -7 -5 -15 -2 -14 5 -29 70 -20 86 3 4 14 8 26 8
18 0 19 -5 14 -42z m-8171 6 c0 -14 -8 -30 -17 -35 -16 -9 -18 -5 -18 26 0 27
4 35 18 35 13 0 18 -7 17 -26z m6293 -15 c14 -28 17 -42 9 -44 -21 -7 -172
-23 -179 -18 -4 2 -6 22 -5 46 2 38 5 42 32 48 17 4 51 7 76 8 45 1 48 0 67
-40z m-6162 -30 c-1 -52 -4 -63 -26 -79 -21 -16 -28 -17 -45 -6 -15 10 -20 25
-20 57 0 40 3 45 40 66 22 12 43 23 46 23 4 0 6 -27 5 -61z m8137 37 c10 -8
17 -26 17 -45 0 -27 -4 -31 -25 -31 -26 0 -45 30 -45 71 0 22 26 25 53 5z
m-7533 -63 c0 -55 0 -56 -20 -38 -32 29 -21 90 18 95 1 0 2 -25 2 -57z m5170
13 c0 -53 9 -49 -170 -76 -74 -11 -166 -26 -204 -34 -67 -15 -69 -14 -122 12
-34 16 -54 32 -54 43 0 23 6 24 465 89 90 13 85 15 85 -34z m40 24 c0 -11 -4
-20 -10 -20 -5 0 -10 9 -10 20 0 11 5 20 10 20 6 0 10 -9 10 -20z m3670 -85
c0 -58 -2 -105 -5 -105 -12 0 -205 109 -205 116 0 7 182 93 198 93 9 1 12 -26
12 -104z m76 46 c-6 -8 -14 -41 -18 -75 -4 -45 -5 -37 -3 34 2 52 4 97 4 100
1 3 7 -6 15 -20 9 -18 10 -29 2 -39z m-9788 37 c18 -18 15 -51 -4 -44 -8 3
-12 2 -9 -4 3 -6 1 -10 -4 -10 -6 0 -11 16 -11 35 0 37 8 43 28 23z m688 -15
c-7 -7 -26 7 -26 19 0 6 6 6 15 -2 9 -7 13 -15 11 -17z m1046 5 c-7 -7 -12 -8
-12 -2 0 14 12 26 19 19 2 -3 -1 -11 -7 -17z m3338 -13 c27 -14 30 -20 30 -65
0 -28 -4 -50 -10 -50 -5 0 -10 3 -10 8 0 4 -16 18 -35 31 -28 19 -35 30 -35
57 0 39 14 43 60 19z m-2250 -32 c30 -20 57 -38 59 -40 3 -2 -5 -12 -16 -23
-12 -10 -24 -16 -27 -13 -3 4 -6 2 -6 -3 0 -15 -54 -44 -67 -36 -11 7 -16 152
-5 152 4 0 32 -17 62 -37z m113 27 l52 -1 -24 -19 c-31 -26 -50 -25 -86 6 -19
16 -23 23 -12 20 10 -3 42 -6 70 -6z m4320 -109 l-128 -108 -3 71 c-5 115 -2
119 109 132 167 20 165 27 22 -95z m-2347 49 c-1 -3 -11 -24 -22 -47 -10 -24
-21 -43 -24 -43 -3 0 -5 31 -5 69 l-1 69 27 -21 c16 -12 27 -24 25 -27z
m-4167 31 c7 -5 12 -14 9 -21 -2 -7 -10 -4 -22 9 -19 21 -12 28 13 12z m-651
-63 c2 -34 -1 -47 -13 -51 -12 -5 -15 3 -15 49 0 69 23 71 28 2z m-78 32 c0
-5 -8 -10 -17 -10 -15 0 -16 2 -3 10 19 12 20 12 20 0z m2976 -9 c0 -15 -3
-17 -18 -8 -13 8 -14 13 -5 19 18 12 23 10 23 -11z m-1562 -10 c17 -18 17 -20
-1 -29 -16 -9 -19 -7 -21 19 -3 34 -1 35 22 10z m6826 4 c11 -13 10 -14 -4 -9
-9 3 -16 10 -16 15 0 13 6 11 20 -6z m90 5 c0 -5 -4 -10 -10 -10 -5 0 -10 5
-10 10 0 6 5 10 10 10 6 0 10 -4 10 -10z m35 -10 c3 -5 2 -10 -4 -10 -5 0 -13
5 -16 10 -3 6 -2 10 4 10 5 0 13 -4 16 -10z m455 -32 c0 -14 -48 -9 -64 8 -27
27 -18 33 24 17 22 -9 40 -20 40 -25z m-8603 7 c0 -8 -4 -15 -8 -15 -11 0 -20
16 -12 24 11 11 20 7 20 -9z m4720 -45 c-1 -45 -5 -60 -16 -58 -28 6 -34 32
-15 76 10 23 22 42 26 42 4 0 6 -27 5 -60z m1343 37 c0 -2 -18 -20 -40 -42
l-39 -38 3 39 c2 21 4 40 5 42 1 3 71 3 71 -1z m2254 -26 c14 -11 16 -11 16 5
0 31 16 3 44 -74 l26 -74 -42 7 c-24 4 -60 11 -80 16 l-38 10 0 58 c0 32 2 60
5 62 9 9 54 2 69 -10z m-8534 0 c0 -5 -7 -14 -15 -21 -16 -14 -18 -10 -9 14 6
17 24 22 24 7z m1736 -8 c17 -23 17 -40 0 -46 -10 -4 -15 4 -18 29 -4 38 -1
42 18 17z m6634 -40 c0 -45 -1 -46 -37 -37 -19 5 -23 13 -23 44 0 35 2 38 30
36 28 -1 30 -3 30 -43z m-120 3 c0 -32 -13 -27 -24 10 -4 15 -2 21 9 21 10 0
15 -10 15 -31z m561 14 c5 0 9 -22 9 -50 0 -27 -3 -50 -7 -50 -5 0 -15 25 -24
56 -14 47 -15 54 -2 50 8 -3 19 -6 24 -6z m-3778 -15 c20 -8 39 -20 44 -27 8
-13 12 -98 4 -98 -2 0 -23 12 -47 27 -41 26 -43 30 -42 70 2 24 3 43 4 43 1 0
18 -7 37 -15z m-3983 -25 c0 -5 -4 -10 -10 -10 -5 0 -10 5 -10 10 0 6 5 10 10
10 6 0 10 -4 10 -10z m-1050 -44 c0 -2 -7 -6 -15 -10 -8 -3 -15 -1 -15 4 0 6
7 10 15 10 8 0 15 -2 15 -4z m8252 -21 c3 -14 1 -28 -3 -31 -15 -9 -29 6 -29
32 0 32 26 31 32 -1z"/>
<path d="M3815 3740 c3 -5 8 -10 11 -10 2 0 4 5 4 10 0 6 -5 10 -11 10 -5 0
-7 -4 -4 -10z"/>
<path d="M3951 3443 c-1 -26 -31 -32 -31 -6 0 9 -2 14 -5 12 -2 -3 -2 -22 2
-43 4 -26 10 -35 19 -32 8 3 14 1 14 -5 0 -6 5 -7 10 -4 12 7 12 52 0 80 -8
19 -9 19 -9 -2z"/>
<path d="M3970 3304 c0 -8 5 -12 10 -9 6 3 10 10 10 16 0 5 -4 9 -10 9 -5 0
-10 -7 -10 -16z"/>
<path d="M3920 3239 c0 -5 5 -7 10 -4 6 3 10 8 10 11 0 2 -4 4 -10 4 -5 0 -10
-5 -10 -11z"/>
<path d="M3950 3195 c0 -14 -12 -20 -33 -16 -5 1 -6 -3 -3 -8 10 -16 46 0 46
20 0 11 -2 19 -5 19 -3 0 -5 -7 -5 -15z"/>
<path d="M3938 3143 c7 -3 16 -2 19 1 4 3 -2 6 -13 5 -11 0 -14 -3 -6 -6z"/>
<path d="M5980 2790 c20 -13 33 -13 25 0 -3 6 -14 10 -23 10 -15 0 -15 -2 -2
-10z"/>
<path d="M6375 2770 c3 -5 8 -10 11 -10 2 0 4 5 4 10 0 6 -5 10 -11 10 -5 0
-7 -4 -4 -10z"/>
<path d="M6353 2620 c0 -47 2 -66 4 -42 2 23 2 61 0 85 -2 23 -4 4 -4 -43z"/>
<path d="M8435 3250 c3 -5 11 -10 16 -10 6 0 7 5 4 10 -3 6 -11 10 -16 10 -6
0 -7 -4 -4 -10z"/>
<path d="M6665 1153 c271 -7 712 -7 702 -1 -7 4 -192 7 -412 6 -220 -1 -350
-4 -290 -5z"/>
<path d="M7093 1133 c37 -2 96 -2 130 0 34 2 4 3 -68 3 -71 0 -99 -1 -62 -3z"/>
<path d="M7368 1123 c7 -3 16 -2 19 1 4 3 -2 6 -13 5 -11 0 -14 -3 -6 -6z"/>
<path d="M1190 530 c0 -5 5 -10 11 -10 5 0 7 5 4 10 -3 6 -8 10 -11 10 -2 0
-4 -4 -4 -10z"/>
<path d="M1228 533 c7 -3 16 -2 19 1 4 3 -2 6 -13 5 -11 0 -14 -3 -6 -6z"/>
<path d="M1280 4155 c0 -12 13 -15 58 -15 52 1 55 2 38 15 -27 20 -96 20 -96
0z"/>
<path d="M9873 3343 c9 -2 25 -2 35 0 9 3 1 5 -18 5 -19 0 -27 -2 -17 -5z"/>
<path d="M9732 3290 c0 -19 2 -27 5 -17 2 9 2 25 0 35 -3 9 -5 1 -5 -18z"/>
<path d="M10793 713 c-38 -19 -53 -49 -42 -81 9 -25 -14 -70 -54 -102 -25 -20
-77 -225 -77 -304 -1 -39 -8 -75 -20 -101 -11 -22 -19 -59 -20 -82 0 -42 1
-43 34 -43 34 0 35 1 46 57 9 42 9 62 1 75 -15 25 -13 69 4 92 8 11 15 36 15
55 1 20 7 47 15 61 13 23 15 15 14 -90 0 -63 3 -146 7 -183 l7 -68 35 3 c34 3
37 6 55 58 10 30 23 56 28 58 5 2 9 13 9 24 0 10 12 35 26 54 16 21 24 42 21
54 -3 11 -1 23 4 26 5 3 9 14 9 25 0 14 7 19 26 19 20 0 24 4 19 19 -3 11 1
25 9 34 8 8 13 23 11 33 -2 11 -7 41 -10 67 -6 42 -11 51 -41 69 -41 24 -42
36 -6 64 l27 22 -20 34 c-39 67 -73 80 -132 51z m-167 -692 c-15 -14 -16 -12
-16 17 0 18 6 39 13 46 10 11 13 8 15 -16 2 -18 -3 -37 -12 -47z"/>
<path d="M10971 354 c0 -11 3 -14 6 -6 3 7 2 16 -1 19 -3 4 -6 -2 -5 -13z"/>
<path d="M1266 255 c-18 -14 -5 -32 14 -20 6 3 10 1 10 -4 0 -7 27 -11 69 -10
53 1 71 5 76 17 3 8 4 16 3 18 -6 6 -88 8 -93 2 -4 -3 -19 -3 -34 2 -18 5 -33
3 -45 -5z"/>
<path d="M481 124 c0 -11 3 -14 6 -6 3 7 2 16 -1 19 -3 4 -6 -2 -5 -13z"/>
<path d="M1556 125 c4 -8 8 -15 10 -15 2 0 4 7 4 15 0 8 -4 15 -10 15 -5 0 -7
-7 -4 -15z"/>
<path d="M3141 124 c0 -11 3 -14 6 -6 3 7 2 16 -1 19 -3 4 -6 -2 -5 -13z"/>
<path d="M4015 120 c3 -5 8 -10 11 -10 2 0 4 5 4 10 0 6 -5 10 -11 10 -5 0 -7
-4 -4 -10z"/>
<path d="M400 90 c0 -11 2 -20 4 -20 2 0 6 9 9 20 3 11 1 20 -4 20 -5 0 -9 -9
-9 -20z"/>
<path d="M1531 94 c0 -11 3 -14 6 -6 3 7 2 16 -1 19 -3 4 -6 -2 -5 -13z"/>
<path d="M3210 101 c0 -6 4 -13 10 -16 6 -3 7 1 4 9 -7 18 -14 21 -14 7z"/>
<path d="M1566 85 c-9 -26 -7 -32 5 -12 6 10 9 21 6 23 -2 3 -7 -2 -11 -11z"/>
<path d="M427 83 c-4 -3 -7 -16 -7 -27 0 -18 -2 -19 -11 -6 -9 12 -10 12 -5
-3 3 -10 6 -25 6 -33 0 -8 6 -14 13 -14 7 0 12 16 13 45 2 47 1 49 -9 38z"/>
<path d="M1380 76 c0 -14 29 -30 38 -21 3 3 0 5 -6 5 -6 0 -9 7 -6 15 4 9 0
15 -10 15 -9 0 -16 -6 -16 -14z"/>
<path d="M2095 48 c9 -57 17 -63 14 -10 -2 24 -7 46 -12 49 -4 3 -5 -15 -2
-39z"/>
<path d="M2053 73 c9 -2 15 -9 12 -14 -4 -5 -1 -9 4 -9 6 0 11 7 11 15 0 9 -9
15 -22 14 -18 -1 -19 -2 -5 -6z"/>
<path d="M1257 53 c-5 -7 -2 -22 6 -33 13 -18 16 -19 27 -5 10 12 10 15 -3 15
-9 0 -17 8 -19 18 -3 12 -6 14 -11 5z"/>
<path d="M1440 51 c0 -5 -8 -12 -17 -14 -13 -4 -12 -5 5 -6 12 0 25 -8 28 -16
8 -20 114 -22 114 -2 0 23 -12 28 -25 10 -12 -16 -14 -16 -29 0 -10 9 -26 17
-37 17 -10 0 -19 5 -19 10 0 6 -4 10 -10 10 -5 0 -10 -4 -10 -9z"/>
<path d="M2043 36 c9 -7 17 -18 17 -23 0 -5 7 -10 15 -10 22 0 18 13 -10 31
-29 19 -47 21 -22 2z"/>
<path d="M1217 16 c-16 -12 -15 -14 8 -14 15 0 25 6 25 14 0 17 -10 17 -33 0z"/>
<path d="M1310 10 c0 -5 7 -10 16 -10 8 0 12 5 9 10 -3 6 -10 10 -16 10 -5 0
-9 -4 -9 -10z"/>
</g>
</svg>
